<svg width="512" height="512" viewBox="0 0 512 512" fill="none" xmlns="http://www.w3.org/2000/svg">
<g clip-path="url(#clip0_20_201)">
<circle cx="261" cy="256" r="227.5" stroke="#0B655A" stroke-width="35"/>
<path d="M101.252 200.573C105.902 195.629 113.572 193.511 109.187 198.375C97.7704 211.068 119.349 216.482 165.017 212.392C184.016 210.685 184.016 210.685 183.957 204.162C183.888 195.815 187.174 189.44 193.618 185.448C197.826 182.819 198.895 182.662 227.144 180.455C264.308 177.542 265.632 176.62 266.073 153.502C266.299 141.83 264.641 140.261 252.116 140.261C229.252 140.261 222.789 142.762 220.621 152.423C219.758 156.307 218.6 158.642 216.884 159.995C214.785 161.643 214.618 162.124 215.825 162.996C217.041 163.879 216.992 164.105 215.452 164.497C213.922 164.89 213.686 165.861 213.853 171C214.196 181.593 212.598 179.985 211.362 168.499C210.783 163.046 210.322 161.898 208.38 161.015C205.192 159.564 204.339 155.542 202.917 135.111C201.691 117.691 201.691 117.691 204.329 114.945C205.771 113.434 206.958 111.453 206.958 110.541C206.958 107.981 209.832 108.56 210.881 111.326C211.391 112.679 212.245 113.778 212.764 113.778C213.284 113.778 215.511 116.23 217.698 119.221C223.25 126.813 225.908 127.765 238.06 126.519C259.894 124.283 274.989 115.769 271.458 107.677C269.918 104.136 271.772 102.714 277.353 103.175C281.011 103.479 281.011 103.479 281.061 108.099C281.08 110.649 281.306 112.905 281.551 113.13C281.796 113.356 283.856 114.896 286.131 116.544C288.407 118.201 290.545 120.683 290.898 122.056C292.017 126.519 293.792 124.959 293.439 119.839C293.125 115.445 293.36 114.886 296.715 111.944C302.011 107.285 302.806 108.54 304.14 123.684C305.405 137.975 305.336 137.887 313.507 134.768C318.323 132.924 321.344 133.914 320.52 137.063C320.108 138.623 318.833 139.172 314.242 139.741C305.464 140.829 304.895 141.359 305.238 147.921C305.513 153.051 305.356 153.531 303.345 153.816C299.971 154.296 296.224 149.951 296.146 145.459C296.038 139.878 294.704 137.23 293.213 139.633C290.84 143.429 293.713 151.923 300.903 162.398C307.494 172.001 307.494 172.001 307.494 179.426C307.494 183.506 307.573 187.008 307.671 187.194C307.769 187.38 314.831 186.38 323.364 184.967C382.401 175.198 419.801 176.836 419.801 189.205C419.801 191.51 411.885 199.906 409.502 200.131C405.579 200.504 405.225 200.043 407.589 197.689C413.533 191.735 408.962 186.066 396.457 183.879C372.907 179.779 325.601 185.252 244.151 201.514C189.038 212.509 172.216 215.285 148.598 217.257C138.887 218.061 129.51 218.728 127.755 218.728C125.999 218.728 121.369 218.267 117.456 217.698C97.7312 214.854 92.7583 209.596 101.252 200.573Z" fill="#0B655A"/>
<path d="M225.3 300.501C225.045 300.246 215.069 301.815 203.142 304.002C135.729 316.322 94.3178 315.763 92.3954 302.492C91.9344 299.314 100.134 291.31 103.861 291.31C106.824 291.31 106.824 291.31 104.411 293.713C102.92 295.214 102.008 297.254 102.008 299.079C102.008 310.702 136.573 311.957 197.777 302.57C225.143 298.372 242.788 295.077 296.734 284.072C353.437 272.508 399.438 270.35 411.16 278.697C415.868 282.041 416.378 284.896 412.945 288.642C407.334 294.763 406.677 295.234 403.764 295.234C400.821 295.234 400.821 295.234 402.813 293.027C417.123 277.127 382.911 273.312 314.527 283.199C289.192 286.857 289.192 286.857 289.682 290.31C292.585 310.486 292.183 355.497 289.074 358.616C288.888 358.792 282.032 354.261 273.832 348.523L258.933 338.106C232.313 354.29 224.368 358.989 224.113 358.989C223.848 358.989 223.828 357.556 224.064 355.801C226.604 336.89 227.379 302.58 225.3 300.501Z" fill="#0B655A"/>
<path d="M328.033 323C329.867 323 330.907 325.923 329.632 327.463C328.985 328.247 327.847 328.885 327.101 328.885C326.356 328.885 325.473 328.218 325.14 327.414C324.473 325.815 326.317 323 328.033 323Z" fill="#FCFCFC"/>
<path d="M351.61 322C353.552 322 353.964 322.432 353.709 324.207C353.483 325.806 352.649 326.482 350.697 326.659C349.216 326.796 348 326.502 348 326.002C348 323.579 349.422 322 351.61 322Z" fill="#FCFCFC"/>
<path d="M188.793 336.586C189.646 337.42 186.772 342.971 185.154 343.619C184.467 343.893 183.8 344.158 183.663 344.197C183.525 344.237 183.418 343.727 183.418 343.05C183.427 341.314 188.008 335.801 188.793 336.586Z" fill="#FCFCFC"/>
<path d="M223.264 262.077C223.552 262.085 223.712 262.207 223.744 262.442C223.769 262.629 223.66 262.883 223.417 263.202C223.227 263.563 223.017 263.949 222.786 264.363C222.027 265.803 221.072 266.864 219.922 267.546C218.779 268.274 217.692 268.708 216.66 268.848C215.675 268.982 214.829 268.906 214.121 268.62C213.608 268.355 212.975 267.915 212.223 267.301C211.524 266.727 210.867 265.933 210.251 264.917C209.683 263.896 209.347 262.652 209.243 261.185C209.127 259.625 209.096 257.814 209.151 255.752C209.199 253.644 209.291 251.506 209.427 249.338C209.562 247.17 209.673 245.172 209.76 243.346C209.887 241.465 209.951 240 209.951 238.949C209.942 237.469 209.468 236.793 208.53 236.921C207.826 237.016 207.042 237.576 206.178 238.601C205.568 239.735 204.761 241.182 203.758 242.942C202.802 244.696 201.931 247.25 201.144 250.605C200.819 252.082 200.446 253.733 200.025 255.558C199.597 257.335 199.425 259.413 199.509 261.79C199.507 262.124 199.554 262.476 199.652 262.845C199.797 263.207 199.895 263.576 199.946 263.951C200.009 264.42 199.949 264.859 199.766 265.266C199.426 265.933 198.991 266.422 198.46 266.732C198.279 266.805 198.098 266.877 197.916 266.95C197.782 267.016 197.644 267.058 197.504 267.077C197.269 267.109 197.042 267.02 196.823 266.811C196.444 266.481 196.2 265.917 196.092 265.119C195.983 264.322 195.966 263.488 196.039 262.619C196.153 261.696 196.205 260.853 196.197 260.089C196.196 258.322 196.183 256.461 196.156 254.506C196.17 252.498 196.021 250.345 195.709 248.047C195.499 246.499 195.186 244.893 194.769 243.23C194.393 241.514 193.88 239.673 193.232 237.707C192.917 236.794 192.635 235.949 192.386 235.171C192.137 234.392 191.579 233.799 190.711 233.392C190.098 233.093 189.623 233.468 189.288 234.516C188.952 235.565 188.728 237.076 188.613 239.05C188.546 241.018 188.52 243.29 188.535 245.868C188.544 248.398 188.589 251.019 188.671 253.731C188.743 257.781 188.834 261.447 188.945 264.728C189.103 268.002 189.21 270.376 189.267 271.849C189.309 272.512 188.936 273.112 188.149 273.649C187.416 274.226 186.616 274.669 185.75 274.977C184.938 275.326 184.368 275.523 184.039 275.568C183.664 275.619 183.438 275.363 183.362 274.8C183.292 274.284 183.306 273.685 183.405 273.003C183.556 272.361 183.654 271.847 183.697 271.459C184.293 268.464 184.604 265.651 184.629 263.021C184.695 260.337 184.566 257.799 184.241 255.407C183.904 252.921 183.418 250.574 182.784 248.368C182.15 246.161 181.462 244.081 180.719 242.128C179.892 239.899 178.557 237.811 176.717 235.864C174.87 233.869 172.702 232.325 170.212 231.229C167.717 230.087 165.062 229.707 162.248 230.089C160.465 230.331 158.771 230.871 157.166 231.71C155.553 232.502 153.995 233.693 152.492 235.282C150.988 236.872 149.819 238.821 148.986 241.132C148.153 243.442 147.937 246.075 148.338 249.03C148.708 251.75 149.698 254.649 151.31 257.726C152.07 259.104 153.21 260.286 154.729 261.274C156.248 262.262 157.853 263 159.543 263.487C161.233 263.974 162.688 264.135 163.908 263.97C164.471 263.893 164.907 263.762 165.216 263.577C167.043 262.613 168.298 261.296 168.979 259.627C169.66 257.958 169.892 256.327 169.676 254.732C169.485 253.325 168.979 252.056 168.156 250.926C167.375 249.742 166.333 248.928 165.031 248.484C164.383 248.285 164.024 247.928 163.954 247.412C163.871 246.802 164.299 246.434 165.237 246.306C165.893 246.217 166.646 246.306 167.494 246.573C168.483 246.821 169.476 247.451 170.473 248.462C171.47 249.473 172.252 250.657 172.818 252.013C172.956 252.328 173.074 252.671 173.172 253.04C173.27 253.408 173.344 253.78 173.395 254.156C173.612 255.75 173.446 257.349 172.9 258.952C172.4 260.548 171.71 261.979 170.831 263.245C169.993 264.457 169.15 265.288 168.303 265.738C167.41 266.193 166.377 266.501 165.204 266.66C163.375 266.908 161.445 266.764 159.414 266.227C157.376 265.644 155.458 264.71 153.66 263.426C151.902 262.088 150.511 260.462 149.487 258.547C148.575 256.76 147.868 255.064 147.363 253.461C146.812 251.864 146.441 250.362 146.25 248.955C145.798 245.624 146.073 242.721 147.075 240.245C148.076 237.768 149.443 235.696 151.175 234.028C152.901 232.313 154.634 231.003 156.374 230.098C157.489 229.517 158.55 229.062 159.556 228.735C160.61 228.401 161.629 228.167 162.614 228.033C164.912 227.721 167.063 227.907 169.066 228.591C171.063 229.227 172.887 230.174 174.539 231.431C176.19 232.687 177.673 234.11 178.987 235.699C180.295 237.241 181.439 238.806 182.418 240.392C183.392 241.932 184.196 243.28 184.83 244.436C185.12 245.161 185.393 245.768 185.651 246.259C185.908 246.749 186.131 246.982 186.319 246.957C186.6 246.918 186.665 246.169 186.515 244.709C186.314 242.873 186.384 240.929 186.727 238.876C187.116 236.817 187.474 234.882 187.802 233.07C188.069 232.222 188.435 231.575 188.9 231.13C189.412 230.678 189.949 230.414 190.512 230.338C191.262 230.236 191.91 230.435 192.456 230.934C194.226 232.365 195.392 233.736 195.951 235.045C196.558 236.348 197.015 237.958 197.323 239.874C197.574 241.369 197.849 242.693 198.149 243.846C198.489 244.947 198.835 245.736 199.187 246.213C200.015 244.572 200.823 242.958 201.61 241.37C202.445 239.776 203.261 238.4 204.059 237.241C204.851 236.035 205.559 235.27 206.184 234.946C206.721 234.682 207.248 234.515 207.764 234.445C208.702 234.318 209.484 234.451 210.111 234.843C210.737 235.236 211.226 235.671 211.578 236.149C211.976 236.62 212.205 236.9 212.265 236.987C212.708 237.787 213.005 238.749 213.158 239.875C213.362 241.376 213.317 242.982 213.024 244.694C212.778 246.399 212.461 248.114 212.074 249.838C211.687 251.563 211.337 253.21 211.025 254.781C210.753 256.299 210.697 257.644 210.856 258.817C211.175 261.162 211.513 262.955 211.873 264.196C212.273 265.383 212.689 266.163 213.122 266.534C213.607 266.946 214.132 267.114 214.695 267.037C215.304 266.954 215.942 266.725 216.607 266.348C217.326 266.011 218.128 265.759 219.012 265.591C219.756 265.443 220.375 265.072 220.868 264.48C221.367 263.934 221.796 263.399 222.154 262.872C222.56 262.34 222.93 262.074 223.264 262.077ZM238.156 247.732C238.289 248.717 238.253 250.035 238.048 251.687C237.842 253.34 237.483 254.917 236.97 256.419C236.511 257.962 235.907 259.143 235.158 259.961C234.45 260.726 233.739 261.3 233.027 261.683C232.308 262.02 231.731 262.337 231.293 262.635C231.112 262.708 230.907 262.783 230.679 262.862C230.504 262.981 230.3 263.057 230.065 263.088C229.127 263.216 228.365 263.056 227.779 262.61C227.566 262.448 227.236 262.302 226.788 262.172C226.387 262.035 225.991 261.754 225.599 261.33C225.207 260.906 224.938 260.154 224.792 259.075C224.639 257.949 224.633 256.852 224.775 255.782C223.797 254.911 223.228 253.89 223.069 252.717C222.973 252.013 223.045 251.311 223.285 250.61C223.947 248.8 224.894 247.334 226.127 246.212C227.36 245.089 228.561 244.257 229.729 243.717C230.945 243.17 231.787 242.864 232.256 242.801C233.991 242.565 235.358 242.953 236.355 243.964C237.352 244.975 237.952 246.231 238.156 247.732ZM235.319 248.475C235.172 247.396 234.676 246.556 233.83 245.955C233.031 245.346 232.092 245.116 231.014 245.262C230.122 245.383 229.246 245.788 228.384 246.479C227.563 247.115 226.878 247.877 226.33 248.764C225.782 249.65 225.464 250.481 225.379 251.257C225.37 251.545 225.358 251.809 225.343 252.05C225.375 252.285 225.407 252.519 225.438 252.754C225.802 251.558 226.214 250.547 226.675 249.72C227.183 248.887 227.565 248.357 227.82 248.131C228.03 247.912 228.322 247.777 228.697 247.726C229.213 247.656 229.49 247.762 229.528 248.043C229.554 248.231 229.343 248.617 228.897 249.203C228.492 249.736 228.039 250.442 227.537 251.323C227.029 252.156 226.64 253.164 226.371 254.347C226.81 254.765 227.35 255.05 227.992 255.202C228.674 255.3 229.32 255.308 229.93 255.225C230.586 255.136 231.18 254.936 231.711 254.625C232.283 254.261 232.63 253.832 232.754 253.337C232.782 253.19 232.79 253.07 232.777 252.976C232.805 252.829 232.812 252.708 232.8 252.615C232.736 252.146 232.487 251.893 232.052 251.856C231.657 251.766 231.276 251.771 230.907 251.868L230.766 251.887C230.25 251.957 229.976 251.875 229.945 251.641C229.926 251.5 229.953 251.353 230.028 251.199C230.15 251.04 230.251 250.906 230.332 250.8C230.575 250.48 230.861 250.298 231.189 250.254C231.659 250.19 232.216 250.425 232.861 250.958C233.473 251.592 233.823 252.237 233.912 252.894C234.027 253.738 233.694 254.452 232.913 255.035C232.179 255.613 231.333 256.062 230.373 256.383C229.414 256.704 228.676 256.9 228.16 256.97C227.41 257.072 226.778 256.99 226.264 256.726C226.23 256.826 226.235 257.04 226.28 257.369C226.458 258.682 226.931 259.525 227.698 259.899C228.459 260.225 229.089 260.474 229.59 260.645C229.884 260.701 230.125 260.716 230.313 260.69C230.97 260.601 231.611 260.228 232.239 259.569C232.913 258.905 233.464 258.042 233.894 256.98C234.214 256.172 234.492 255.227 234.727 254.144C234.962 253.062 235.13 252.012 235.231 250.995C235.372 249.925 235.402 249.085 235.319 248.475ZM266.644 217.857C266.536 220.929 266.136 223.968 265.446 226.976C264.749 229.936 263.912 232.749 262.936 235.413C261.954 238.03 260.99 240.43 260.044 242.612C259.092 244.748 258.306 246.526 257.687 247.948C257.109 249.316 256.848 250.211 256.905 250.633C256.905 250.633 256.99 250.908 257.161 251.458C257.331 252.008 257.584 252.643 257.92 253.361C258.25 254.033 258.641 254.625 259.093 255.137C259.544 255.649 260.028 255.87 260.544 255.8C261.201 255.711 261.899 255.401 262.639 254.871C263.42 254.287 264.019 253.776 264.437 253.337C265.267 252.412 265.799 251.934 266.034 251.902C266.175 251.883 266.255 251.944 266.274 252.085C266.299 252.272 266.223 252.593 266.046 253.047C265.869 253.501 265.676 253.838 265.467 254.057C264.805 254.815 264.117 255.554 263.403 256.272C262.729 256.936 261.993 257.323 261.195 257.431C259.929 257.603 258.893 257.361 258.088 256.706C257.276 256.004 256.642 255.207 256.187 254.313C255.731 253.42 255.351 252.731 255.046 252.247C253.944 252.922 252.988 253.625 252.18 254.355C251.418 255.08 250.668 255.707 249.928 256.237C249.188 256.768 248.325 257.1 247.34 257.233C245.698 257.456 244.195 257.111 242.829 256.198C241.457 255.237 240.681 254.101 240.503 252.787C240.159 250.255 240.422 248.141 241.291 246.447C242.206 244.746 243.484 243.426 245.124 242.487C246.758 241.501 248.466 240.888 250.248 240.646C251.467 240.48 252.612 240.468 253.682 240.609C254.042 237.981 254.378 235.882 254.69 234.311C254.996 232.693 255.324 231.239 255.675 229.95C256.066 228.607 256.505 227.09 256.992 225.4C257.432 223.716 258.013 222.014 258.735 220.292C259.497 218.516 260.366 216.822 261.341 215.209C261.687 214.589 262.045 214.062 262.417 213.63C262.835 213.191 263.349 212.93 263.958 212.848C264.85 212.727 265.477 212.952 265.841 213.523C266.199 214.048 266.432 214.709 266.54 215.506C266.655 216.351 266.69 217.134 266.644 217.857ZM264.803 216.96C264.257 217.512 263.498 218.785 262.527 220.78C261.596 222.721 260.724 224.918 259.91 227.369C259.308 229.266 258.709 231.186 258.113 233.13C257.51 235.027 256.996 236.697 256.571 238.14C256.146 239.583 255.848 240.554 255.677 241.055C256.05 241.339 256.303 241.973 256.437 242.958C256.571 243.943 256.573 245.018 256.445 246.182C256.635 245.822 257.117 244.801 257.892 243.119C258.667 241.438 259.535 239.385 260.496 236.962C261.503 234.533 262.361 232.052 263.068 229.52C263.384 228.33 263.696 226.927 264.001 225.309C264.307 223.691 264.549 222.13 264.727 220.625C264.899 219.073 264.924 217.851 264.803 216.96ZM253.225 245.687C253.221 245.306 253.22 244.947 253.222 244.613C253.225 244.278 253.21 243.993 253.178 243.759C253.102 243.196 252.896 242.913 252.562 242.911C252.12 242.828 251.712 242.811 251.337 242.862C250.024 243.041 248.854 243.749 247.828 244.987C246.848 246.218 245.982 247.578 245.228 249.065C245.079 249.372 244.915 249.92 244.735 250.708C244.602 251.491 244.59 252.28 244.698 253.078C244.781 253.688 244.975 254.234 245.279 254.719C245.577 255.156 246.024 255.453 246.618 255.612C246.719 255.646 246.909 255.644 247.191 255.606C247.847 255.516 248.61 255.15 249.478 254.507C250.346 253.864 251.145 253.063 251.874 252.104C252.645 251.092 253.147 250.044 253.383 248.962C253.507 248.467 253.507 247.942 253.384 247.385C253.307 246.822 253.254 246.256 253.225 245.687ZM288.861 248.733C288.982 248.573 289.16 248.477 289.395 248.445C289.723 248.401 289.91 248.543 289.954 248.871C289.98 249.059 289.901 249.356 289.717 249.763C289.58 250.164 289.219 250.667 288.632 251.272C288.052 251.924 287.442 252.532 286.802 253.096C286.209 253.654 285.326 254.013 284.153 254.172C282.887 254.344 281.847 254.246 281.033 253.879C280.265 253.506 279.679 253.06 279.275 252.541C278.911 251.97 278.659 251.526 278.521 251.211C278.015 251.709 277.505 252.352 276.991 253.138C276.517 253.871 275.779 254.592 274.777 255.301C273.768 255.964 272.255 256.432 270.239 256.705C269.113 256.858 268.046 256.74 267.038 256.352C266.07 255.91 265.463 254.774 265.214 252.945C265.144 252.429 265.095 251.886 265.065 251.317C265.076 250.695 265.128 250.019 265.22 249.29C265.484 247.009 265.905 245.185 266.483 243.816C267.062 242.448 268.06 241.357 269.478 240.544C270.366 240.041 271.467 239.534 272.783 239.021C274.098 238.508 275.256 238.064 276.256 237.689C276.572 237.551 276.812 237.208 276.976 236.66C277.181 236.059 277.416 235.502 277.681 234.988C277.837 234.728 278.022 234.512 278.238 234.34C278.447 234.12 278.692 233.991 278.973 233.953C279.208 233.921 279.529 233.997 279.936 234.181C280.296 234.371 280.567 234.788 280.75 235.432C280.98 236.069 281.133 236.669 281.21 237.232C281.201 237.52 281.131 237.888 281.001 238.335C280.911 238.73 280.851 239.168 280.821 239.649C280.81 240.272 280.693 241.171 280.471 242.348C280.248 243.525 280.188 244.488 280.29 245.239C280.379 245.895 280.444 246.722 280.483 247.72C280.517 248.671 280.606 249.328 280.751 249.69C281.419 250.746 282.248 251.398 283.237 251.645C284.22 251.847 285.053 251.829 285.738 251.593C286.241 251.429 286.786 251.044 287.373 250.439C287.959 249.834 288.455 249.266 288.861 248.733ZM276.375 242.259C276.23 241.897 275.941 241.53 275.509 241.158C275.123 240.781 274.672 240.627 274.157 240.697C274.063 240.71 273.882 240.782 273.613 240.914C272.854 241.304 272.083 241.958 271.3 242.876C270.51 243.747 269.87 244.837 269.379 246.146C268.888 247.455 268.707 248.936 268.836 250.59C268.899 251.06 269.123 251.65 269.506 252.362C269.936 253.068 270.444 253.644 271.03 254.09C271.616 254.536 272.151 254.607 272.635 254.302C273.697 253.68 274.546 252.897 275.182 251.95C275.859 250.951 276.369 249.783 276.713 248.447C276.865 247.805 276.943 247.15 276.948 246.48C276.993 245.758 276.974 245.091 276.891 244.482C276.815 243.919 276.728 243.453 276.63 243.084C276.526 242.668 276.441 242.393 276.375 242.259ZM310.716 216.032C310.453 217.262 309.98 218.353 309.297 219.305C308.608 220.211 307.466 220.772 305.872 220.988C305.121 221.09 304.422 221.042 303.774 220.843C303.12 220.598 302.554 220.125 302.077 219.425C301.726 218.948 301.508 218.404 301.426 217.794C301.324 217.044 301.419 216.338 301.712 215.678C302.051 215.011 302.593 214.603 303.337 214.454C303.431 214.441 303.525 214.428 303.618 214.416C303.753 214.35 303.843 214.314 303.89 214.307C304.641 214.205 305.265 214.407 305.764 214.913C305.93 215.081 306.026 215.259 306.051 215.447C306.096 215.775 305.956 216.153 305.631 216.579C305.348 216.952 305.067 217.348 304.79 217.768C304.559 218.181 304.546 218.613 304.75 219.063C305.146 219.869 305.72 220.221 306.47 220.119C307.174 220.024 307.873 219.546 308.569 218.688C309.305 217.776 309.812 216.585 310.09 215.114C310.192 214.813 310.218 214.475 310.167 214.1C310.072 213.397 309.692 212.708 309.027 212.034C308.362 211.36 307.562 210.919 306.627 210.712C306.232 210.622 305.794 210.562 305.312 210.532C304.878 210.495 304.449 210.505 304.027 210.563C302.338 210.792 300.74 211.51 299.232 212.718C297.724 213.926 296.783 215.439 296.409 217.257C296.257 217.899 296.173 218.507 296.155 219.083C296.138 219.658 296.161 220.181 296.224 220.65C296.409 222.01 296.917 223.111 297.748 223.954C298.578 224.796 299.584 225.52 300.765 226.124C301.992 226.721 303.27 227.336 304.598 227.968C305.919 228.553 307.186 229.265 308.398 230.103C309.658 230.936 310.735 232.008 311.629 233.319C312.524 234.631 313.111 236.319 313.391 238.382C313.55 239.555 313.587 240.887 313.503 242.379C313.419 243.872 313.17 245.553 312.755 247.425C312.25 249.691 311.319 251.799 309.959 253.751C308.653 255.744 307.039 257.396 305.115 258.708C303.238 260.013 301.174 260.819 298.923 261.124C297.375 261.334 295.789 261.263 294.165 260.91C291.752 260.378 290.058 259.509 289.082 258.304C288.066 257.152 287.469 255.92 287.29 254.606C287.17 253.715 287.172 252.855 287.299 252.026C287.425 251.197 287.54 250.464 287.645 249.829C287.846 248.847 288.372 247.796 289.224 246.677C290.122 245.552 291.16 244.576 292.337 243.747C293.508 242.872 294.633 242.361 295.712 242.214C296.181 242.151 296.636 242.161 297.077 242.244C298 242.358 298.573 243.235 298.796 244.877C298.859 245.346 298.876 245.821 298.846 246.303C298.816 246.785 298.742 247.296 298.624 247.838C298.417 248.774 298.023 249.567 297.443 250.219C296.909 250.865 296.127 251.258 295.095 251.398C294.579 251.468 294.083 251.511 293.608 251.528C293.173 251.491 292.813 251.301 292.527 250.958C292.468 250.871 292.408 250.783 292.349 250.696C292.336 250.602 292.323 250.508 292.31 250.414C292.208 249.664 292.498 248.98 293.178 248.362C293.515 248.03 293.867 247.982 294.234 248.219C294.6 248.456 294.97 248.716 295.343 249C295.756 249.23 296.167 249.27 296.577 249.119C297.302 248.829 297.737 248.34 297.882 247.652C298.028 246.963 298.046 246.22 297.938 245.423C297.906 245.189 297.875 244.954 297.843 244.72C297.811 244.485 297.756 244.254 297.677 244.026C297.522 243.235 297.069 242.89 296.319 242.992C295.756 243.068 295.084 243.398 294.303 243.982C293.57 244.559 292.828 245.257 292.08 246.075C291.371 246.84 290.76 247.615 290.246 248.402C289.725 249.141 289.42 249.708 289.33 250.102C289.067 251.332 289.006 252.463 289.146 253.495C289.483 255.981 291.032 257.538 293.792 258.166C294.086 258.222 294.421 258.224 294.796 258.173C295.734 258.046 296.972 257.663 298.51 257.025C300.094 256.38 301.737 255.464 303.439 254.278C305.141 253.092 306.681 251.593 308.059 249.782C309.438 247.971 310.39 245.835 310.916 243.375C311.185 242.192 311.35 241.119 311.41 240.156C311.471 239.192 311.447 238.312 311.339 237.514C311.097 235.732 310.497 234.309 309.541 233.244C308.625 232.127 307.48 231.255 306.105 230.63C304.777 229.998 303.389 229.446 301.94 228.974C300.49 228.502 299.085 228 297.723 227.468C296.402 226.883 295.275 226.152 294.344 225.275C293.454 224.345 292.904 223.106 292.694 221.559C292.617 220.996 292.581 220.38 292.586 219.71C292.631 218.988 292.744 218.232 292.923 217.443C293.505 214.689 294.611 212.629 296.24 211.261C297.917 209.887 299.763 209.063 301.78 208.79C302.624 208.675 303.481 208.654 304.351 208.728C305.214 208.754 306.064 208.853 306.899 209.027C308.323 209.311 309.317 209.773 309.882 210.413C310.493 211.047 310.856 211.786 310.971 212.63C311.041 213.146 311.044 213.695 310.979 214.277C310.956 214.805 310.868 215.39 310.716 216.032ZM333.508 227.054C333.847 227.438 334.051 227.888 334.121 228.404C334.261 229.436 334.088 230.797 333.601 232.487C333.154 234.124 332.706 235.928 332.257 237.9C331.808 239.872 331.694 241.845 331.915 243.822C332.211 246.361 332.518 248.97 332.834 251.65C333.196 254.324 333.245 256.968 332.979 259.584C332.766 262.24 331.888 264.747 330.345 267.106C329.08 269.045 327.644 270.434 326.039 271.273C324.486 272.153 322.795 272.717 320.966 272.965C320.638 273.009 320.283 273.034 319.901 273.038C319.526 273.089 319.148 273.116 318.766 273.12C317.862 273.147 316.843 272.855 315.71 272.245C314.576 271.635 313.538 270.677 312.597 269.372C311.655 268.066 311.048 266.405 310.774 264.388C310.679 263.685 310.644 262.901 310.67 262.038C310.714 260.599 310.871 259.121 311.143 257.603C311.421 256.132 311.942 254.867 312.706 253.808C313.47 252.749 314.602 252.118 316.103 251.914C317.323 251.749 318.532 252.039 319.732 252.783C320.938 253.575 321.972 254.509 322.835 255.587C323.745 256.657 324.377 257.622 324.733 258.482C324.95 259.025 325.147 259.596 325.323 260.193C325.553 260.83 325.709 261.454 325.792 262.064C325.938 263.143 325.829 263.922 325.464 264.401C325.065 264.981 324.514 265.318 323.81 265.414C323.295 265.484 322.666 265.426 321.924 265.24C321.442 265.21 320.835 264.958 320.102 264.484C319.422 264.051 319.025 263.412 318.91 262.568C318.834 262.005 318.878 261.45 319.042 260.902C319.254 260.348 319.441 259.964 319.603 259.751C319.94 259.419 320.179 259.243 320.319 259.224C320.554 259.192 320.759 259.475 320.936 260.072L320.946 260.142C320.971 260.33 320.903 260.53 320.741 260.743C320.578 260.956 320.553 261.294 320.663 261.757C320.846 262.401 321.168 262.835 321.628 263.059C322.095 263.33 322.422 263.453 322.609 263.427C323.219 263.344 323.441 262.693 323.276 261.474C323.142 260.489 322.698 259.331 321.945 258C321.316 256.891 320.523 255.972 319.564 255.242C318.605 254.513 317.55 254.13 316.399 254.095C315.824 254.078 315.233 254.301 314.627 254.766C313.975 255.237 313.464 256.046 313.094 257.195C312.848 257.849 312.73 258.558 312.738 259.321C312.699 260.091 312.733 260.874 312.842 261.672C312.963 262.563 313.148 263.398 313.396 264.176C313.84 266.743 314.775 268.527 316.201 269.527C317.585 270.581 319.286 270.971 321.303 270.698C321.585 270.66 321.863 270.598 322.138 270.513C322.466 270.468 322.791 270.4 323.113 270.309C324.495 269.93 325.76 269.042 326.908 267.644C328.055 266.247 328.967 264.69 329.641 262.974C330.207 261.512 330.524 260.323 330.59 259.406C330.704 258.483 330.675 257.389 330.503 256.122C330.395 255.325 330.25 254.437 330.07 253.458C329.936 252.473 329.771 251.254 329.573 249.8C329.446 248.862 329.303 247.807 329.144 246.634C329.031 245.455 328.9 244.135 328.75 242.675C326.442 244.326 324.491 245.259 322.896 245.476C321.63 245.647 320.403 245.408 319.216 244.757C318.803 244.526 318.473 244.213 318.229 243.816C318.024 243.366 317.887 242.883 317.817 242.367C317.664 241.242 317.777 239.96 318.155 238.524C318.527 237.04 319.009 235.661 319.6 234.387C320.185 233.066 320.721 232.085 321.207 231.446C321.459 230.839 321.796 230.506 322.218 230.449C322.594 230.398 322.93 230.591 323.228 231.029C323.52 231.419 323.562 231.724 323.353 231.943C322.813 232.542 322.383 233.245 322.063 234.053C321.742 234.861 321.449 235.689 321.182 236.537C320.961 237.379 320.937 238.433 321.109 239.699C321.173 240.168 321.26 240.634 321.37 241.097C321.528 241.553 321.716 241.886 321.936 242.095C322.208 242.345 322.65 242.428 323.259 242.345C323.822 242.269 324.44 242.066 325.111 241.736C325.777 241.359 326.315 240.927 326.727 240.442C327.713 239.257 328.364 238.07 328.68 236.881C329.037 235.638 329.283 234.458 329.418 233.341C329.482 232.759 329.557 232.081 329.643 231.305C329.722 230.482 329.708 229.672 329.6 228.874C329.561 228.593 329.815 228.176 330.361 227.625C330.901 227.026 331.499 226.682 332.156 226.593C332.672 226.523 333.123 226.677 333.508 227.054ZM350.709 232.888C350.856 233.967 350.87 234.777 350.752 235.318C350.682 235.853 350.528 236.304 350.291 236.671C350.101 237.031 349.894 237.441 349.67 237.901C349.446 238.362 349.297 239.027 349.224 239.897C349.192 240.713 349.28 241.895 349.49 243.443C349.573 244.053 349.875 244.513 350.394 244.825C350.914 245.137 351.479 245.251 352.089 245.168C352.37 245.13 352.524 245.205 352.549 245.392C352.581 245.627 352.432 245.934 352.101 246.313C351.824 246.733 351.544 246.962 351.263 247C350.231 247.14 349.426 246.843 348.849 246.109C348.266 245.329 347.91 244.469 347.783 243.531C347.573 241.984 347.454 240.758 347.427 239.854C347.394 238.903 347.37 238.023 347.355 237.212C347.334 236.355 347.218 235.32 347.005 234.107C346.844 233.269 346.638 232.629 346.386 232.185C346.129 231.695 345.601 231.503 344.804 231.612C344.382 231.669 344.086 231.781 343.918 231.947C343.796 232.107 343.641 232.367 343.451 232.727C343.036 233.547 342.734 234.663 342.543 236.074C342.393 237.432 342.303 238.877 342.272 240.41C342.282 241.89 342.272 243.228 342.244 244.426C342.256 245.571 342.217 246.341 342.127 246.735C342.031 247.082 341.875 247.342 341.66 247.515C341.491 247.681 341.29 247.78 341.055 247.812C340.868 247.837 340.674 247.816 340.473 247.748C340.326 247.72 340.203 247.689 340.102 247.655C339.849 247.546 339.7 247.327 339.655 246.999C339.611 246.67 339.63 246.286 339.714 245.844C339.838 245.35 339.921 244.909 339.964 244.521C340.007 244.133 340.058 243.457 340.119 242.494C340.219 241.477 340.317 240.436 340.412 239.373C340.5 238.262 340.563 237.322 340.602 236.553C340.682 235.73 340.721 235.318 340.721 235.318C340.487 235.35 340.255 235.405 340.027 235.484C339.793 235.516 339.558 235.548 339.324 235.58C338.62 235.675 338.23 235.441 338.154 234.879C338.103 234.503 338.167 233.921 338.347 233.133C338.526 232.344 338.909 231.289 339.494 229.968C339.677 229.561 340.083 229.028 340.71 228.37C341.337 227.711 341.891 227.397 342.373 227.428C342.548 227.308 342.706 227.239 342.847 227.22C342.987 227.201 343.105 227.185 343.198 227.172C343.714 227.102 344.021 227.252 344.119 227.621C344.257 227.936 344.329 228.285 344.333 228.666C344.33 229.001 344.373 229.139 344.46 229.079C345.079 228.708 345.716 228.479 346.373 228.389C347.358 228.256 348.256 228.54 349.068 229.242C349.92 229.89 350.467 231.106 350.709 232.888ZM370.578 238.503C369.61 240.163 368.65 241.368 367.701 242.118C366.752 242.868 365.818 243.377 364.899 243.645C363.974 243.866 362.995 244.046 361.963 244.186C360.369 244.403 359.056 244.056 358.025 243.145C357.034 242.18 356.396 241.001 356.111 239.607C355.937 238.675 355.831 237.543 355.794 236.211C355.803 234.872 356.078 233.378 356.619 231.728C357.125 230.179 357.732 229.021 358.44 228.257C359.142 227.445 359.849 226.847 360.562 226.464C361.274 226.081 361.852 225.763 362.295 225.512C362.651 225.321 363.041 225.196 363.463 225.139C364.401 225.012 365.183 225.144 365.81 225.537C366.069 225.693 366.245 225.932 366.337 226.254C366.469 226.522 366.557 226.821 366.601 227.149C366.627 227.337 366.632 227.551 366.617 227.792C366.643 227.979 366.645 228.17 366.623 228.364C366.612 228.987 366.439 229.822 366.103 230.871C365.809 231.866 365.534 232.835 365.28 233.777C365.037 234.097 364.751 234.279 364.422 234.323C364.047 234.374 363.925 234.176 364.055 233.728C364.162 232.758 364.362 231.943 364.655 231.282C364.988 230.568 365.122 229.977 365.059 229.508C365.086 229.361 365.091 229.217 365.072 229.076C365.053 228.936 365.037 228.818 365.024 228.724C364.935 228.068 364.593 227.66 363.998 227.502C363.704 227.447 363.487 227.428 363.346 227.448C362.736 227.53 362.071 227.907 361.35 228.578C360.629 229.249 360.077 230.112 359.695 231.167C359.232 232.329 358.952 233.609 358.855 235.007C358.805 236.399 358.844 237.564 358.971 238.502C359.124 239.628 359.65 240.512 360.549 241.154C361.489 241.743 362.538 241.911 363.698 241.658C364.992 241.339 366.211 240.816 367.354 240.087C368.544 239.353 369.505 238.339 370.237 237.045C370.365 236.932 370.5 236.866 370.64 236.847C370.781 236.828 370.864 236.912 370.89 237.1C370.915 237.287 370.88 237.555 370.783 237.902C370.728 238.197 370.66 238.397 370.578 238.503Z" fill="#082924"/>
<path d="M138.163 338.081L140.631 338.19L140.47 342.897L146.176 340.429L146.936 343.796L141.425 343.882L145.447 347.639L143.023 349.961L140.191 345.227L137.532 350.071C137.013 349.677 136.603 349.365 136.302 349.136C136.015 348.921 135.796 348.757 135.646 348.642C135.453 348.509 135.323 348.417 135.254 348.367C135.244 348.325 135.36 348.166 135.602 347.891C135.807 347.667 136.139 347.326 136.596 346.87C137.069 346.401 137.788 345.755 138.751 344.93L133.769 343.961L134.68 341.395L138.633 343.113C138.489 341.824 138.383 340.844 138.315 340.172C138.275 339.504 138.238 339.009 138.202 338.687C138.172 338.31 138.159 338.108 138.163 338.081Z" fill="#082924"/>
<path d="M154.497 351.79C155.342 352.652 156.101 353.388 156.774 353.995C157.463 354.616 158.051 355.138 158.54 355.56C159.105 356.048 159.608 356.456 160.049 356.784C160.52 357.11 161.135 357.535 161.894 358.057C162.546 358.488 163.388 359.042 164.419 359.719C165.465 360.383 166.745 361.182 168.259 362.118C167.847 362.214 167.444 362.345 167.05 362.509C166.685 362.673 166.356 362.828 166.065 362.975C165.731 363.165 165.411 363.354 165.106 363.543C164.788 363.773 164.398 364.061 163.935 364.406C163.53 364.694 163.017 365.062 162.395 365.508C161.802 365.954 161.087 366.479 160.248 367.084C160.908 365.58 161.302 364.325 161.43 363.32C161.574 362.327 161.591 361.517 161.48 360.89C161.352 360.168 161.103 359.607 160.733 359.208C160.137 358.694 159.541 358.378 158.944 358.262C158.347 358.145 157.755 358.152 157.166 358.282C156.607 358.411 156.066 358.621 155.543 358.914C155.033 359.192 154.57 359.496 154.151 359.825C153.747 360.141 153.394 360.434 153.092 360.705C152.804 360.962 152.603 361.134 152.487 361.22C153.05 361.653 153.537 362.007 153.946 362.281C154.356 362.555 154.689 362.763 154.946 362.905C155.263 363.072 155.527 363.193 155.737 363.268C156.081 363.353 156.446 363.415 156.833 363.457C157.175 363.486 157.553 363.494 157.967 363.48C158.397 363.479 158.839 363.409 159.294 363.27C158.686 363.702 158.172 364.056 157.752 364.331C157.347 364.619 157.021 364.843 156.775 365.002C156.47 365.191 156.245 365.343 156.101 365.457C155.942 365.559 155.724 365.703 155.449 365.891C155.202 366.05 154.891 366.26 154.515 366.52C154.138 366.78 153.675 367.111 153.126 367.514C153.244 367.057 153.296 366.651 153.284 366.295C153.286 365.924 153.26 365.61 153.207 365.351C153.138 365.052 153.047 364.787 152.935 364.558C152.794 364.33 152.638 364.088 152.466 363.833C152.31 363.619 152.116 363.372 151.884 363.092C151.682 362.811 151.45 362.517 151.187 362.211C150.444 363.005 149.823 363.705 149.325 364.312C148.841 364.904 148.436 365.405 148.109 365.814C147.741 366.293 147.443 366.701 147.218 367.038C147.007 367.388 146.821 367.799 146.66 368.271C146.511 368.674 146.372 369.166 146.244 369.746C146.145 370.325 146.086 370.993 146.068 371.748C145.834 371.413 145.563 371.086 145.256 370.768C144.949 370.449 144.672 370.17 144.427 369.932C144.12 369.641 143.815 369.377 143.51 369.141C143.191 368.891 142.826 368.629 142.416 368.355C142.082 368.12 141.688 367.859 141.233 367.573C140.779 367.287 140.294 366.988 139.779 366.677C140.283 366.659 140.74 366.602 141.152 366.506C141.564 366.409 141.901 366.302 142.164 366.183C142.47 366.049 142.739 365.896 142.97 365.723C143.158 365.566 143.538 365.203 144.111 364.635C144.699 364.052 145.372 363.371 146.131 362.59C146.904 361.796 147.713 360.952 148.556 360.059C149.4 359.166 150.187 358.33 150.916 357.55C151.659 356.757 152.28 356.07 152.779 355.491C153.293 354.924 153.585 354.564 153.654 354.411C153.736 354.216 153.832 353.994 153.942 353.743C154.121 353.339 154.306 352.688 154.497 351.79Z" fill="#082924"/>
<path d="M169.21 374.047C169.367 374.001 169.548 373.853 169.754 373.602C169.989 373.345 170.282 373.076 170.633 372.796C171.002 372.527 171.459 372.289 172.005 372.082C172.552 371.875 173.252 371.799 174.106 371.853C174.943 371.897 175.669 372.061 176.283 372.345C176.897 372.63 177.42 372.988 177.853 373.421C178.285 373.854 178.636 374.331 178.905 374.852C179.192 375.384 179.418 375.914 179.583 376.441C179.699 376.797 179.698 377.211 179.581 377.683C179.476 378.138 179.301 378.621 179.056 379.133C178.812 379.644 178.524 380.164 178.192 380.693C177.889 381.216 177.575 381.72 177.25 382.205C176.936 382.674 176.638 383.105 176.355 383.497C176.1 383.884 175.91 384.217 175.785 384.494C175.594 384.897 175.489 385.282 175.472 385.65C175.467 386.001 175.502 386.331 175.578 386.638C175.666 386.929 175.778 387.187 175.913 387.412C176.048 387.638 176.176 387.823 176.295 387.967C176.362 388.08 176.433 388.171 176.507 388.241C176.632 388.412 176.752 388.486 176.868 388.463C176.6 388.629 176.363 388.767 176.16 388.878C175.956 388.988 175.787 389.085 175.652 389.168C175.489 389.256 175.352 389.325 175.242 389.376C175.119 389.442 174.994 389.495 174.867 389.534C174.756 389.584 174.622 389.632 174.466 389.677C174.309 389.722 174.146 389.776 173.978 389.837C173.814 389.618 173.67 389.387 173.546 389.145C173.44 388.914 173.345 388.701 173.262 388.508C173.155 388.276 173.066 388.056 172.994 387.846C172.922 387.636 172.871 387.415 172.84 387.183C172.814 386.977 172.786 386.759 172.755 386.527C172.741 386.305 172.756 386.078 172.8 385.845C172.543 385.994 172.076 386.143 171.397 386.292C170.736 386.452 169.978 386.504 169.124 386.45C168.281 386.379 167.401 386.155 166.482 385.777C165.581 385.409 164.753 384.768 163.998 383.852C163.663 383.456 163.395 383.019 163.195 382.54C163.006 382.045 162.904 381.533 162.889 381.003C162.891 380.484 162.997 379.958 163.208 379.425C163.447 378.887 163.834 378.369 164.367 377.87C164.901 377.371 165.464 377.021 166.056 376.819C166.649 376.617 167.248 376.526 167.854 376.545C168.461 376.565 169.077 376.674 169.704 376.871C170.331 377.069 170.946 377.318 171.548 377.619C172.006 377.879 172.435 378.179 172.834 378.52C173.165 378.819 173.471 379.185 173.753 379.62C174.047 380.038 174.216 380.509 174.26 381.033C174.869 380.155 175.33 379.446 175.645 378.907C175.988 378.362 176.243 377.94 176.41 377.64C176.577 377.271 176.682 377.004 176.725 376.842C176.722 376.674 176.722 376.485 176.725 376.274C176.746 376.074 176.729 375.874 176.674 375.674C176.631 375.459 176.536 375.246 176.389 375.037C176.242 374.828 176.025 374.647 175.739 374.493C175.435 374.33 175.15 374.26 174.884 374.285C174.618 374.31 174.368 374.381 174.135 374.497C173.931 374.608 173.75 374.756 173.591 374.942C173.432 375.128 173.317 375.305 173.245 375.473C173.208 375.593 173.183 375.731 173.169 375.888C173.167 376.028 173.185 376.193 173.222 376.382C173.26 376.571 173.352 376.77 173.499 376.979C173.069 376.784 172.687 376.608 172.354 376.449C172.033 376.275 171.75 376.135 171.503 376.03C171.221 375.904 170.981 375.79 170.78 375.69C170.579 375.59 170.332 375.485 170.039 375.375C169.792 375.27 169.488 375.141 169.126 374.989C168.765 374.836 168.34 374.668 167.851 374.485C168.037 374.434 168.208 374.386 168.365 374.341C168.533 374.279 168.682 374.229 168.809 374.189C168.949 374.134 169.082 374.086 169.21 374.047ZM170.966 379.354C170.645 379.18 170.283 379.062 169.88 379.002C169.488 378.926 169.089 378.928 168.683 379.009C168.289 379.073 167.9 379.2 167.516 379.388C167.161 379.571 166.859 379.835 166.611 380.178C166.363 380.522 166.231 380.878 166.214 381.246C166.225 381.608 166.318 381.961 166.492 382.305C166.683 382.659 166.938 382.959 167.258 383.204C167.595 383.459 167.971 383.644 168.385 383.758C168.794 383.845 169.233 383.856 169.702 383.79C170.183 383.709 170.633 383.584 171.051 383.417C171.482 383.233 171.846 383.02 172.145 382.779C172.455 382.521 172.646 382.272 172.719 382.034C172.889 381.523 172.792 381.038 172.43 380.577C172.079 380.1 171.591 379.692 170.966 379.354Z" fill="#082924"/>
<path d="M203.958 385.969C203.593 386.296 203.265 386.594 202.974 386.865C202.701 387.143 202.455 387.389 202.237 387.602C202 387.852 201.791 388.07 201.609 388.255C201.409 388.477 201.182 388.73 200.928 389.016C200.691 389.266 200.391 389.577 200.027 389.947C199.691 390.308 199.286 390.738 198.814 391.238C199.096 390.307 199.167 389.505 199.028 388.834C198.898 388.144 198.701 387.567 198.435 387.104C198.114 386.574 197.71 386.118 197.225 385.737C196.302 385.148 195.569 384.858 195.024 384.868C194.48 384.877 194.057 385.004 193.756 385.249C193.619 385.344 193.455 385.471 193.263 385.63C193.099 385.779 192.94 385.942 192.785 386.117C192.65 386.3 192.542 386.495 192.462 386.702C192.381 386.908 192.384 387.107 192.47 387.296C192.518 387.426 192.697 387.655 193.006 387.984C193.325 388.294 193.704 388.663 194.144 389.091C194.612 389.508 195.098 389.955 195.603 390.433C196.127 390.918 196.614 391.387 197.064 391.841C197.514 392.294 197.889 392.717 198.19 393.107C198.491 393.498 198.662 393.811 198.702 394.047C198.724 394.275 198.723 394.57 198.701 394.933C198.706 395.285 198.647 395.654 198.523 396.039C198.427 396.414 198.266 396.784 198.041 397.148C197.843 397.501 197.561 397.82 197.196 398.102C196.831 398.385 196.368 398.593 195.807 398.727C195.264 398.869 194.609 398.897 193.841 398.812C192.945 398.716 192.161 398.459 191.49 398.043C190.82 397.627 190.232 397.18 189.726 396.703C189.239 396.234 188.822 395.805 188.475 395.417C188.137 395.011 187.866 394.786 187.662 394.743C187.44 394.693 187.158 394.694 186.818 394.746C186.477 394.798 186.141 394.863 185.81 394.942C185.506 395.01 185.235 395.08 184.996 395.154C184.766 395.21 184.66 395.219 184.678 395.183C184.696 395.147 184.777 395.05 184.923 394.893C185.087 394.744 185.269 394.559 185.469 394.337C185.696 394.105 185.923 393.852 186.15 393.576C186.404 393.29 186.622 393.01 186.802 392.737C186.956 392.517 187.146 392.248 187.372 391.928C187.562 391.636 187.792 391.285 188.063 390.875C188.362 390.455 188.714 389.948 189.121 389.354C188.981 389.864 188.909 390.326 188.906 390.741C188.921 391.163 188.95 391.536 188.991 391.86C189.052 392.236 189.126 392.563 189.213 392.841C189.366 393.212 189.575 393.586 189.839 393.96C190.121 394.343 190.417 394.698 190.727 395.027C191.045 395.337 191.372 395.585 191.707 395.771C192.042 395.957 192.357 396.047 192.652 396.041C192.947 396.036 193.25 395.923 193.561 395.705C193.89 395.495 194.177 395.234 194.422 394.922C194.667 394.61 194.856 394.296 194.99 393.981C195.133 393.648 195.179 393.35 195.129 393.088C195.081 392.914 194.901 392.641 194.591 392.268C194.3 391.904 193.934 391.486 193.493 391.014C193.071 390.55 192.616 390.062 192.129 389.548C191.66 389.043 191.219 388.549 190.806 388.067C190.42 387.575 190.109 387.136 189.873 386.752C189.664 386.356 189.59 386.052 189.652 385.837C189.758 385.532 189.887 385.204 190.039 384.852C190.2 384.483 190.394 384.138 190.62 383.818C190.873 383.488 191.174 383.2 191.521 382.953C191.887 382.715 192.319 382.57 192.816 382.518C193.148 382.484 193.546 382.522 194.009 382.631C194.472 382.74 194.964 382.905 195.484 383.126C196.013 383.329 196.543 383.575 197.073 383.866C197.612 384.139 198.115 384.418 198.581 384.704C199.074 384.979 199.502 385.248 199.866 385.512C200.249 385.784 200.533 386.003 200.72 386.17C200.936 386.371 201.21 386.499 201.543 386.553C201.83 386.609 202.167 386.61 202.554 386.555C202.941 386.5 203.409 386.305 203.958 385.969Z" fill="#082924"/>
<path d="M214.25 383.284C214.676 383.477 215.069 383.641 215.428 383.776C215.794 383.891 216.101 383.991 216.349 384.076C216.636 384.171 216.887 384.246 217.102 384.301C217.401 384.358 217.752 384.417 218.154 384.479C218.498 384.526 218.914 384.582 219.4 384.645C219.906 384.713 220.486 384.779 221.141 384.844C220.801 384.923 220.51 385.015 220.268 385.119C220.032 385.204 219.832 385.308 219.668 385.432C219.479 385.571 219.322 385.707 219.197 385.842C219.023 386.068 218.759 386.562 218.402 387.324C218.081 387.97 217.632 388.937 217.054 390.225C216.495 391.518 215.745 393.271 214.803 395.486C215.717 394.972 216.538 394.621 217.269 394.435C218.024 394.234 218.67 394.12 219.205 394.091C219.824 394.064 220.378 394.113 220.866 394.239C221.455 394.454 222.012 394.806 222.538 395.296C223.09 395.771 223.575 396.292 223.994 396.859C224.433 397.43 224.784 398.01 225.049 398.599C225.333 399.193 225.508 399.697 225.573 400.109C225.614 400.391 225.574 400.734 225.452 401.14C225.335 401.526 225.168 401.941 224.95 402.385C224.732 402.828 224.481 403.274 224.199 403.722C223.916 404.17 223.643 404.588 223.378 404.978C223.132 405.373 222.911 405.722 222.714 406.025C222.523 406.309 222.398 406.516 222.337 406.647C222.211 406.926 222.146 407.212 222.143 407.502C222.131 407.749 222.173 408.031 222.267 408.347C222.367 408.643 222.567 408.924 222.866 409.189C222.604 409.079 222.32 408.975 222.013 408.875C221.732 408.76 221.457 408.658 221.189 408.568C220.882 408.468 220.573 408.378 220.26 408.297L219.205 408.025C218.872 407.939 218.488 407.85 218.053 407.759C217.623 407.648 217.151 407.536 216.637 407.424C216.94 407.398 217.212 407.333 217.454 407.229C217.702 407.106 217.918 406.984 218.101 406.865C218.31 406.731 218.502 406.583 218.678 406.42C218.802 406.286 218.987 406.021 219.233 405.626C219.484 405.212 219.743 404.738 220.01 404.203C220.282 403.648 220.534 403.057 220.766 402.429C221.017 401.807 221.21 401.201 221.346 400.611C221.507 400.007 221.579 399.453 221.563 398.949C221.566 398.45 221.453 398.056 221.224 397.768C220.543 396.884 219.838 396.358 219.109 396.191C218.405 396.009 217.647 396.116 216.833 396.509C216.534 396.661 216.245 396.816 215.966 396.973C215.712 397.116 215.428 397.292 215.111 397.502C214.801 397.693 214.508 397.898 214.231 398.118C214.143 398.408 214.057 398.729 213.971 399.082C213.886 399.435 213.804 399.778 213.724 400.112C213.633 400.484 213.552 400.859 213.48 401.236C213.35 401.806 213.242 402.372 213.157 402.933C213.076 403.412 213 403.945 212.929 404.53C212.863 405.096 212.842 405.622 212.864 406.107C212.622 406.002 212.361 405.925 212.081 405.873C211.808 405.803 211.544 405.735 211.29 405.669C210.991 405.613 210.705 405.549 210.431 405.479C210.171 405.432 209.899 405.393 209.613 405.361C209.367 405.339 209.101 405.312 208.816 405.28C208.537 405.229 208.261 405.2 207.99 405.192C208.358 404.808 208.685 404.424 208.969 404.039C209.26 403.635 209.503 403.281 209.7 402.978C209.934 402.622 210.145 402.27 210.334 401.923C210.48 401.649 210.685 401.108 210.95 400.302C211.239 399.481 211.554 398.542 211.894 397.484C212.24 396.407 212.594 395.269 212.955 394.071C213.316 392.873 213.651 391.731 213.957 390.644C214.264 389.557 214.511 388.6 214.697 387.773C214.902 386.951 215.023 386.378 215.057 386.054C215.072 385.725 215.058 385.388 215.014 385.043C214.979 384.743 214.901 384.441 214.782 384.14C214.668 383.819 214.49 383.533 214.25 383.284Z" fill="#082924"/>
<path d="M237.04 397.691L242.563 398.413C242.071 399.594 241.686 400.604 241.405 401.444C241.145 402.287 240.954 402.996 240.833 403.571C240.66 404.221 240.562 404.778 240.538 405.242C240.539 405.669 240.576 406.131 240.65 406.628C240.714 407.042 240.83 407.523 240.998 408.072C241.166 408.62 241.414 409.178 241.742 409.746C241.512 409.637 241.26 409.546 240.985 409.472C240.71 409.399 240.454 409.338 240.216 409.289C239.939 409.235 239.658 409.202 239.375 409.188C239.091 409.174 238.776 409.167 238.43 409.166C238.144 409.173 237.796 409.182 237.387 409.194C236.978 409.206 236.546 409.236 236.091 409.283C236.518 408.419 236.857 407.667 237.11 407.027C237.382 406.389 237.589 405.855 237.731 405.425C237.884 404.915 237.993 404.501 238.057 404.184C238.113 403.784 238.176 403.334 238.246 402.834C238.319 402.315 238.389 401.815 238.456 401.335C238.523 400.856 238.572 400.435 238.602 400.072C238.635 399.69 238.628 399.446 238.582 399.338L238.324 399.003C238.217 398.888 238.057 398.727 237.841 398.518C237.649 398.292 237.382 398.016 237.04 397.691ZM239.82 393.329C240.272 393.159 240.701 393.15 241.108 393.3C241.534 393.453 241.849 393.684 242.05 393.992C242.251 394.301 242.285 394.64 242.152 395.01C242.039 395.383 241.666 395.714 241.035 396.005C240.406 396.275 239.879 396.334 239.452 396.181C239.025 396.028 238.744 395.781 238.608 395.44C238.472 395.098 238.494 394.725 238.673 394.32C238.855 393.894 239.237 393.564 239.82 393.329Z" fill="#082924"/>
<path d="M263.58 399.108C264.104 399.101 264.651 399.194 265.219 399.388C265.787 399.562 266.336 399.797 266.865 400.093C267.394 400.368 267.874 400.674 268.303 401.011C268.752 401.328 269.12 401.636 269.408 401.935C269.921 402.473 270.276 403.205 270.472 404.131C270.688 405.036 270.744 405.974 270.638 406.944C270.532 407.894 270.264 408.796 269.834 409.65C269.403 410.503 268.798 411.137 268.017 411.551C267.456 411.842 266.905 412.071 266.363 412.24C265.82 412.409 265.298 412.537 264.794 412.625C264.291 412.712 263.818 412.759 263.374 412.765C262.93 412.771 262.546 412.767 262.223 412.751C261.617 412.719 260.978 412.516 260.306 412.141C259.654 411.767 259.031 411.301 258.437 410.744C257.862 410.186 257.368 409.578 256.954 408.917C256.539 408.237 256.287 407.594 256.197 406.99C256.062 406.164 256.028 405.297 256.095 404.388C256.161 403.478 256.44 402.637 256.932 401.863C257.445 401.089 258.222 400.443 259.263 399.924C260.324 399.405 261.763 399.133 263.58 399.108ZM262.768 410.866C262.991 410.904 263.293 410.849 263.674 410.703C264.055 410.536 264.424 410.278 264.782 409.93C265.16 409.582 265.486 409.144 265.76 408.615C266.054 408.066 266.225 407.408 266.273 406.64C266.322 405.893 266.311 405.207 266.241 404.582C266.19 403.957 266.091 403.413 265.942 402.951C265.793 402.469 265.625 402.077 265.439 401.777C265.252 401.477 265.057 401.268 264.854 401.149C264.508 400.972 264.092 400.837 263.606 400.743C263.119 400.628 262.706 400.654 262.366 400.82C262.205 400.903 262.006 401.077 261.768 401.343C261.53 401.609 261.294 401.945 261.058 402.352C260.822 402.738 260.607 403.185 260.413 403.693C260.24 404.2 260.117 404.726 260.045 405.272C259.973 405.818 259.962 406.404 260.012 407.029C260.083 407.653 260.223 408.247 260.434 408.809C260.645 409.351 260.935 409.822 261.304 410.22C261.694 410.598 262.182 410.814 262.768 410.866Z" fill="#082924"/>
<path d="M283.83 407.797C283.84 407.12 283.825 406.529 283.787 406.024C283.764 405.496 283.74 405.06 283.713 404.717C283.674 404.314 283.627 403.974 283.572 403.697C283.486 403.364 283.387 402.971 283.277 402.519C283.183 402.044 283.071 401.582 282.941 401.134C282.827 400.662 282.714 400.251 282.604 399.902C282.489 399.532 282.387 399.274 282.296 399.125C282.185 398.98 282.042 398.831 281.867 398.676C281.522 398.387 281.049 398.129 280.449 397.904C280.887 397.727 281.26 397.582 281.566 397.469C281.889 397.332 282.154 397.216 282.361 397.119C282.584 396.999 282.779 396.895 282.946 396.805C283.094 396.718 283.271 396.627 283.478 396.53C283.649 396.46 283.858 396.374 284.105 396.271C284.352 396.167 284.637 396.047 284.959 395.911L285.406 398.628C285.893 397.768 286.428 397.094 287.01 396.606C287.592 396.119 288.156 395.747 288.702 395.491C289.319 395.181 289.946 394.972 290.583 394.864C291.386 394.769 292.148 394.773 292.868 394.876C293.608 394.975 294.255 395.131 294.812 395.344C295.384 395.533 295.861 395.759 296.242 396.022C296.623 396.285 296.867 396.53 296.974 396.757C297.366 397.489 297.567 398.191 297.577 398.865C297.583 399.519 297.548 400.169 297.47 400.817C297.409 401.441 297.367 402.062 297.346 402.679C297.344 403.294 297.522 403.929 297.878 404.584C297.993 404.749 298.108 404.914 298.223 405.078C298.334 405.223 298.464 405.365 298.615 405.503C298.766 405.641 298.931 405.746 299.11 405.818C298.887 405.835 298.666 405.863 298.447 405.9C298.224 405.917 298.021 405.931 297.838 405.942C297.616 405.959 297.413 405.973 297.23 405.984C297.027 405.997 296.756 406.033 296.418 406.091C295.841 406.188 294.951 406.37 293.749 406.636C293.846 406.189 293.917 405.819 293.961 405.525C294.022 405.208 294.074 404.954 294.118 404.762C294.155 404.531 294.181 404.352 294.197 404.227C294.322 403.612 294.332 402.935 294.227 402.196C294.141 401.453 293.944 400.719 293.636 399.994C293.525 399.747 293.365 399.457 293.155 399.124C292.945 398.791 292.687 398.477 292.382 398.181C292.096 397.882 291.771 397.64 291.405 397.457C291.06 397.27 290.684 397.19 290.278 397.218C289.872 397.246 289.444 397.421 288.994 397.743C288.563 398.062 288.132 398.585 287.701 399.313C287.389 399.918 287.19 400.627 287.105 401.44C287.015 402.13 287.029 402.977 287.145 403.981C287.258 404.964 287.603 406.082 288.181 407.335C287.894 407.343 287.632 407.367 287.393 407.407C287.15 407.428 286.947 407.442 286.784 407.449C286.581 407.463 286.398 407.474 286.235 407.481C286.056 407.511 285.855 407.535 285.632 407.553C285.433 407.586 285.185 407.629 284.886 407.679C284.584 407.71 284.232 407.749 283.83 407.797Z" fill="#082924"/>
<path d="M302.507 385.474C303.124 385.277 303.661 385.098 304.117 384.937C304.566 384.757 304.933 384.616 305.219 384.515L306.047 384.223C306.248 384.13 306.501 384.03 306.806 383.922C307.072 383.828 307.396 383.714 307.776 383.579C308.157 383.445 308.598 383.299 309.101 383.143C309.469 383.612 309.852 384.064 310.25 384.501C310.66 384.912 311.021 385.286 311.335 385.624C311.718 386.023 312.09 386.394 312.449 386.737C312.809 387.081 313.242 387.494 313.747 387.978C314.175 388.383 314.698 388.882 315.314 389.477C315.922 390.052 316.63 390.711 317.438 391.452C317.408 390.799 317.379 390.2 317.35 389.655C317.34 389.103 317.329 388.626 317.315 388.224C317.298 387.76 317.268 387.343 317.224 386.974C317.181 386.604 317.116 386.157 317.03 385.632C316.955 385.188 316.856 384.656 316.731 384.038C316.626 383.412 316.482 382.694 316.299 381.882C316.851 381.687 317.346 381.512 317.783 381.357C318.221 381.202 318.598 381.058 318.913 380.926C319.275 380.798 319.595 380.674 319.872 380.555C320.177 380.447 320.578 380.284 321.077 380.065C321.499 379.873 322.068 379.64 322.783 379.365C323.51 379.066 324.404 378.696 325.465 378.257C325.181 378.678 324.973 379.072 324.842 379.439C324.721 379.781 324.637 380.078 324.588 380.331C324.536 380.627 324.537 380.894 324.592 381.131C324.631 381.331 324.77 381.774 325.009 382.459C325.267 383.137 325.57 383.949 325.917 384.895C326.275 385.816 326.661 386.802 327.073 387.854C327.505 388.898 327.922 389.884 328.326 390.81C328.731 391.736 329.094 392.537 329.417 393.214C329.752 393.865 330.005 394.267 330.177 394.42C330.403 394.597 330.691 394.794 331.043 395.012C331.36 395.199 331.75 395.403 332.212 395.625C332.693 395.84 333.294 396.055 334.016 396.27C333.156 396.617 332.435 396.904 331.853 397.131C331.289 397.351 330.821 397.538 330.448 397.691C330.019 397.864 329.67 397.998 329.404 398.092C329.119 398.193 328.732 398.34 328.245 398.534C327.815 398.707 327.246 398.94 326.539 399.233C325.823 399.508 324.906 399.874 323.788 400.334C323.931 399.941 324.055 399.555 324.16 399.176C324.265 398.797 324.344 398.459 324.396 398.163C324.471 397.816 324.521 397.488 324.546 397.18C324.533 396.778 324.372 396.098 324.063 395.138C323.808 394.309 323.391 393.142 322.813 391.636C322.227 390.112 321.391 388.088 320.306 385.564C320.183 386.27 320.098 386.963 320.051 387.642C320.016 388.296 319.99 388.893 319.973 389.433C319.968 390.055 319.975 390.651 319.992 391.222C320.018 391.812 320.057 392.46 320.109 393.169C320.143 393.777 320.18 394.501 320.222 395.342C320.282 396.175 320.336 397.097 320.382 398.107L319.321 398.546C318.86 397.854 318.431 397.236 318.032 396.693C317.626 396.131 317.258 395.662 316.928 395.287C316.549 394.844 316.193 394.457 315.86 394.126C315.508 393.801 315.118 393.437 314.689 393.032C314.31 392.696 313.853 392.302 313.317 391.85C312.801 391.391 312.21 390.884 311.544 390.328C312.14 392.298 312.665 393.887 313.12 395.094C313.567 396.283 313.944 397.197 314.252 397.836C314.614 398.606 314.906 399.155 315.128 399.483C315.373 399.759 315.7 400.05 316.11 400.354C316.458 400.616 316.909 400.916 317.463 401.255C318.028 401.568 318.721 401.9 319.542 402.251C319.124 402.399 318.686 402.554 318.229 402.715C317.773 402.877 317.358 403.034 316.985 403.187C316.536 403.367 316.093 403.535 315.655 403.689C315.206 403.869 314.685 404.086 314.091 404.338C313.574 404.564 312.952 404.826 312.225 405.126C311.498 405.426 310.669 405.794 309.737 406.23C310.048 405.821 310.286 405.448 310.453 405.111C310.611 404.756 310.724 404.449 310.792 404.19C310.882 403.88 310.925 403.587 310.92 403.311C310.915 403.141 310.828 402.798 310.658 402.281C310.507 401.757 310.3 401.125 310.038 400.384C309.795 399.636 309.498 398.811 309.147 397.909C308.815 397 308.47 396.085 308.112 395.165C307.765 394.218 307.42 393.304 307.077 392.42C306.726 391.518 306.404 390.712 306.111 390.004C305.83 389.269 305.589 388.66 305.389 388.175C305.189 387.69 305.062 387.382 305.008 387.251C304.835 386.992 304.634 386.742 304.404 386.503C304.209 386.294 303.953 386.096 303.635 385.909C303.318 385.721 302.942 385.576 302.507 385.474Z" fill="#082924"/>
<path d="M328.116 385.882C328.147 385.733 328.093 385.513 327.954 385.223C327.822 384.906 327.707 384.537 327.609 384.115C327.529 383.684 327.521 383.196 327.585 382.652C327.649 382.107 327.909 381.501 328.367 380.835C328.806 380.177 329.306 379.669 329.867 379.31C330.428 378.951 331.016 378.702 331.631 378.564C332.246 378.425 332.864 378.374 333.485 378.41C334.124 378.439 334.733 378.515 335.311 378.639C335.702 378.72 336.093 378.923 336.484 379.249C336.865 379.558 337.239 379.936 337.607 380.386C337.974 380.835 338.329 381.323 338.672 381.851C339.023 382.353 339.351 382.855 339.655 383.357C339.95 383.841 340.216 384.294 340.453 384.716C340.698 385.113 340.922 385.429 341.125 385.667C341.415 386.02 341.73 386.293 342.07 386.487C342.4 386.664 342.728 386.796 343.055 386.885C343.373 386.956 343.67 386.992 343.947 386.993C344.225 386.994 344.46 386.981 344.654 386.955C344.793 386.956 344.912 386.943 345.013 386.917C345.235 386.9 345.362 386.839 345.395 386.733C345.424 387.032 345.443 387.291 345.451 387.511C345.458 387.731 345.47 387.915 345.484 388.065C345.49 388.241 345.491 388.386 345.486 388.5C345.49 388.632 345.481 388.759 345.458 388.882C345.452 388.996 345.434 389.128 345.402 389.277C345.371 389.426 345.344 389.585 345.322 389.751C345.036 389.777 344.749 389.781 344.462 389.762C344.193 389.735 343.947 389.708 343.724 389.681C343.454 389.654 343.203 389.618 342.97 389.574C342.738 389.529 342.504 389.463 342.269 389.374C342.063 389.294 341.843 389.21 341.608 389.122C341.392 389.025 341.184 388.901 340.985 388.751C341.004 389.032 340.923 389.485 340.741 390.108C340.578 390.723 340.268 391.363 339.81 392.03C339.343 392.679 338.712 393.283 337.918 393.844C337.142 394.395 336.142 394.753 334.917 394.916C334.383 394.994 333.842 394.997 333.294 394.925C332.735 394.836 332.202 394.667 331.694 394.42C331.204 394.164 330.757 393.82 330.353 393.388C329.957 392.93 329.65 392.363 329.432 391.685C329.214 391.008 329.15 390.38 329.24 389.8C329.331 389.22 329.529 388.689 329.836 388.207C330.142 387.724 330.538 387.277 331.023 386.866C331.508 386.454 332.036 386.078 332.607 385.736C333.07 385.492 333.558 385.291 334.07 385.134C334.51 385.012 335.003 384.943 335.548 384.927C336.083 384.894 336.609 384.987 337.126 385.208C336.584 384.284 336.133 383.562 335.772 383.043C335.42 382.497 335.142 382.083 334.937 381.802C334.667 381.485 334.465 381.269 334.331 381.154C334.171 381.075 333.992 380.982 333.794 380.876C333.614 380.761 333.417 380.677 333.203 380.624C332.978 380.553 332.732 380.526 332.464 380.543C332.196 380.56 331.922 380.647 331.641 380.804C331.341 380.97 331.14 381.168 331.037 381.396C330.934 381.624 330.883 381.861 330.882 382.107C330.89 382.327 330.944 382.547 331.044 382.767C331.145 382.986 331.257 383.167 331.383 383.308C331.478 383.396 331.597 383.484 331.739 383.572C331.871 383.643 332.035 383.709 332.232 383.771C332.428 383.834 332.66 383.856 332.928 383.839C332.539 384.093 332.191 384.316 331.883 384.509C331.566 384.684 331.298 384.845 331.082 384.994C330.829 385.16 330.607 385.3 330.417 385.414C330.226 385.528 330.01 385.677 329.766 385.86C329.55 386.009 329.283 386.193 328.967 386.412C328.651 386.631 328.29 386.893 327.885 387.2C327.925 387.024 327.961 386.862 327.993 386.712C328.014 386.546 328.037 386.401 328.06 386.278C328.074 386.137 328.092 386.005 328.116 385.882ZM333.972 387.058C333.654 387.233 333.371 387.47 333.123 387.768C332.865 388.048 332.677 388.373 332.561 388.741C332.434 389.093 332.369 389.47 332.365 389.874C332.369 390.252 332.475 390.626 332.682 390.996C332.89 391.365 333.163 391.647 333.503 391.841C333.852 392.009 334.23 392.107 334.638 392.134C335.064 392.153 335.469 392.093 335.853 391.953C336.254 391.805 336.608 391.591 336.912 391.31C337.189 391.021 337.408 390.67 337.569 390.258C337.72 389.827 337.816 389.402 337.856 388.98C337.887 388.541 337.859 388.141 337.772 387.78C337.676 387.402 337.532 387.125 337.34 386.949C336.938 386.561 336.433 386.401 335.825 386.47C335.207 386.521 334.589 386.717 333.972 387.058Z" fill="#082924"/>
<path d="M333.907 372.477C334.155 372.446 334.421 372.371 334.704 372.25C335.005 372.118 335.277 371.981 335.52 371.837C335.816 371.662 336.114 371.473 336.415 371.272C336.716 371.07 337.075 370.81 337.492 370.493C337.834 370.244 338.256 369.935 338.76 369.566C339.264 369.198 339.817 368.776 340.419 368.303C340.257 368.563 340.135 368.811 340.053 369.046C339.971 369.282 339.915 369.502 339.886 369.707C339.85 369.938 339.841 370.155 339.857 370.356C339.873 370.627 339.95 371.073 340.086 371.694C340.228 372.289 340.402 372.946 340.607 373.667C340.829 374.378 341.075 375.086 341.343 375.793C341.629 376.489 341.913 377.058 342.194 377.5C342.43 377.875 342.699 378.301 343.004 378.776C343.262 379.184 343.583 379.684 343.968 380.275C344.353 380.866 344.795 381.54 345.294 382.297C345.947 380.694 346.434 379.434 346.755 378.519C347.065 377.586 347.279 376.887 347.396 376.419C347.542 375.888 347.604 375.535 347.582 375.361C347.496 375.272 347.378 375.19 347.228 375.115C347.072 375.067 346.87 375.023 346.622 374.983C346.374 374.942 346.036 374.932 345.608 374.951C346.094 374.733 346.508 374.535 346.849 374.356C347.208 374.167 347.515 374.009 347.77 373.881C348.059 373.733 348.302 373.589 348.499 373.449C348.725 373.316 348.997 373.143 349.315 372.931C349.877 372.575 350.745 372.025 351.92 371.282C351.159 372.552 350.583 373.595 350.193 374.411C349.972 374.87 349.782 375.286 349.625 375.66C349.479 376.051 349.33 376.455 349.179 376.873C349.039 377.236 348.878 377.659 348.697 378.14C348.534 378.612 348.382 379.1 348.241 379.604C349.504 380.19 350.573 380.656 351.449 381.003C352.343 381.339 353.079 381.605 353.655 381.802C354.33 382.034 354.898 382.201 355.36 382.301C355.81 382.386 356.37 382.452 357.039 382.5C357.617 382.556 358.341 382.594 359.213 382.616C360.091 382.611 361.139 382.587 362.358 382.543C361.849 382.728 361.375 382.927 360.935 383.14C360.507 383.371 360.151 383.582 359.867 383.773C359.514 384.006 359.207 384.234 358.946 384.459C358.68 384.71 358.39 384.999 358.077 385.325C357.804 385.603 357.488 385.943 357.129 386.343C356.798 386.75 356.452 387.223 356.092 387.764C356.261 387.336 356.349 386.968 356.356 386.66C356.392 386.358 356.399 386.12 356.377 385.946C356.331 385.739 356.26 385.583 356.162 385.477C355.96 385.362 355.525 385.14 354.856 384.811C354.263 384.554 353.392 384.181 352.245 383.691C351.097 383.2 349.5 382.555 347.453 381.755C347.413 381.803 347.36 381.904 347.296 382.059C347.249 382.204 347.174 382.413 347.069 382.685C346.952 382.942 346.812 383.305 346.649 383.777L350.367 387.716C350.256 387.875 350.123 388.036 349.966 388.199C349.827 388.352 349.691 388.491 349.558 388.617C349.401 388.78 349.233 388.926 349.054 389.056C348.874 389.185 348.671 389.352 348.445 389.556C348.243 389.723 348.002 389.924 347.724 390.159C347.457 390.411 347.153 390.696 346.811 391.016C346.934 390.733 346.995 390.451 346.996 390.169C347.009 389.904 347.001 389.663 346.973 389.446C346.934 389.212 346.88 388.975 346.811 388.734C346.731 388.548 346.467 388.096 346.02 387.378C345.589 386.65 345.058 385.795 344.427 384.812C343.784 383.812 343.087 382.751 342.334 381.629C341.6 380.497 340.893 379.441 340.216 378.462C339.527 377.466 338.921 376.608 338.398 375.888C337.864 375.152 337.496 374.691 337.294 374.506C337.024 374.292 336.724 374.072 336.396 373.845C336.108 373.641 335.754 373.43 335.333 373.211C334.918 372.965 334.443 372.721 333.907 372.477Z" fill="#082924"/>
<path d="M361.743 374.675C362.202 374.345 362.589 373.992 362.904 373.617C363.167 373.304 363.375 372.957 363.527 372.575C363.683 372.165 363.661 371.748 363.461 371.322C363.84 371.148 364.165 371.002 364.433 370.883C364.688 370.749 364.911 370.639 365.101 370.552C365.32 370.469 365.502 370.388 365.646 370.309C365.803 370.246 365.985 370.165 366.191 370.067C366.381 369.98 366.61 369.877 366.878 369.759C367.15 369.613 367.476 369.453 367.856 369.28C367.584 369.425 367.349 369.631 367.152 369.897C366.971 370.151 366.804 370.406 366.653 370.664C366.481 370.961 366.346 371.269 366.246 371.588C366.176 371.787 366.121 372.049 366.08 372.376C366.055 372.691 365.942 373.058 365.741 373.475C365.539 373.892 365.204 374.369 364.734 374.905C364.267 375.413 363.579 375.97 362.667 376.575C361.576 377.309 360.534 377.773 359.54 377.967C358.533 378.145 357.607 378.153 356.763 377.992C355.905 377.815 355.138 377.511 354.461 377.081C353.784 376.65 353.23 376.193 352.798 375.71C352.367 375.227 352.088 374.597 351.962 373.821C351.835 373.044 351.879 372.22 352.093 371.348C352.323 370.464 352.748 369.576 353.366 368.686C353.972 367.78 354.783 366.962 355.8 366.232C356.39 365.808 356.989 365.489 357.598 365.275C358.209 365.033 358.811 364.874 359.403 364.796C360.01 364.706 360.587 364.688 361.132 364.743C361.664 364.782 362.153 364.864 362.6 364.989C363.059 365.13 363.499 365.31 363.919 365.528C364.284 365.712 364.656 365.953 365.037 366.249C365.417 366.546 365.746 366.892 366.025 367.286C364.805 368.212 363.817 368.96 363.059 369.528C362.318 370.086 361.735 370.517 361.308 370.823L360.202 371.618L359.366 372.219C359.071 372.431 358.692 372.715 358.23 373.072C357.768 373.429 357.205 373.87 356.543 374.396C357.144 374.955 357.751 375.287 358.364 375.392C358.981 375.469 359.549 375.457 360.069 375.357C360.651 375.236 361.208 375.009 361.743 374.675ZM356.027 372.09C356.577 371.744 357.031 371.455 357.388 371.224C357.762 370.98 358.07 370.784 358.312 370.634C358.571 370.473 358.774 370.339 358.922 370.233L359.536 369.792C359.946 369.497 360.689 368.927 361.765 368.08C361.144 367.435 360.554 367.029 359.993 366.862C359.449 366.683 358.966 366.608 358.545 366.638C358.061 366.688 357.61 366.839 357.191 367.091C356.138 367.872 355.518 368.652 355.331 369.43C355.16 370.197 355.392 371.084 356.027 372.09Z" fill="#082924"/>
<path d="M360.772 363.441C361.076 363.204 361.343 362.987 361.571 362.788C361.801 362.563 361.992 362.37 362.146 362.21C362.33 362.024 362.491 361.858 362.629 361.712C362.829 361.485 363.029 361.245 363.23 360.991C363.415 360.777 363.6 360.55 363.786 360.309C363.972 360.041 364.144 359.772 364.301 359.503C364.425 359.795 364.535 360.045 364.632 360.254C364.729 360.463 364.82 360.637 364.904 360.777C364.988 360.944 365.073 361.071 365.159 361.156C365.244 361.268 365.359 361.395 365.502 361.537C365.731 361.791 366.126 362.181 366.687 362.707C366.834 361.381 366.994 360.31 367.169 359.492C367.359 358.662 367.513 358.009 367.632 357.533C367.784 356.975 367.93 356.568 368.072 356.312C368.55 355.738 369.168 355.429 369.925 355.385C370.251 355.368 370.621 355.407 371.033 355.503C371.43 355.584 371.884 355.763 372.394 356.04C372.903 356.317 373.462 356.699 374.069 357.185C374.661 357.656 375.308 358.281 376.009 359.058C375.718 359.364 375.457 359.643 375.226 359.896C375.011 360.136 374.827 360.336 374.673 360.496C374.504 360.696 374.335 360.869 374.167 361.014L373.614 361.614C373.43 361.827 373.192 362.087 372.9 362.393C372.61 362.671 372.265 363.024 371.866 363.45C372.018 362.412 372.006 361.637 371.829 361.124C371.654 360.583 371.429 360.206 371.155 359.991C370.851 359.748 370.477 359.633 370.032 359.647C369.584 359.742 369.214 359.956 368.922 360.29C368.661 360.569 368.447 360.981 368.282 361.524C368.116 362.067 368.114 362.814 368.276 363.766C369.226 364.647 370.018 365.372 370.651 365.941C371.3 366.497 371.827 366.946 372.231 367.288C372.707 367.673 373.083 367.974 373.358 368.188C373.619 368.361 373.94 368.509 374.322 368.631C374.63 368.737 375.005 368.824 375.447 368.893C375.889 368.962 376.393 368.979 376.957 368.942C376.258 369.495 375.709 369.971 375.311 370.37C375.066 370.609 374.851 370.821 374.667 371.008C374.483 371.221 374.283 371.448 374.067 371.688C373.883 371.901 373.66 372.148 373.399 372.427C373.168 372.708 372.906 373.015 372.613 373.348C372.577 373.086 372.49 372.816 372.35 372.537C372.226 372.273 372.093 372.028 371.952 371.805C371.797 371.539 371.62 371.28 371.421 371.026C371.235 370.815 370.941 370.51 370.539 370.113C370.152 369.703 369.692 369.263 369.159 368.793C368.626 368.296 368.072 367.791 367.496 367.279C366.905 366.753 366.343 366.268 365.809 365.826C365.274 365.383 364.797 365.011 364.377 364.71C363.958 364.381 363.646 364.172 363.442 364.083C363.193 363.979 362.929 363.888 362.65 363.811C362.4 363.734 362.121 363.67 361.811 363.619C361.487 363.554 361.141 363.495 360.772 363.441Z" fill="#082924"/>
<path d="M374.91 345.061L374.44 342.816L379.422 341.847L375.479 337.302L378.835 335.822L380.23 340.755L383.223 336.25L386.235 337.88L381.935 341.546L387.651 342.789C387.36 343.349 387.13 343.792 386.96 344.116C386.803 344.425 386.682 344.661 386.597 344.823C386.503 345.028 386.437 345.167 386.401 345.24C386.359 345.259 386.165 345.192 385.819 345.04C385.534 344.909 385.099 344.691 384.511 344.388C383.907 344.074 383.058 343.581 381.964 342.911L382.125 347.618L379.216 347.407L380.083 343.447C378.764 343.881 377.76 344.209 377.071 344.429C376.378 344.623 375.867 344.774 375.537 344.883C375.149 344.998 374.94 345.058 374.91 345.061Z" fill="#082924"/>
</g>
<defs>
<clipPath id="clip0_20_201">
<rect width="512" height="512" fill="white"/>
</clipPath>
</defs>
</svg>
